<svg width="300" height="190" viewBox="0 0 300 190" fill="none" xmlns="http://www.w3.org/2000/svg">
<g clip-path="url(#clip0_297_5)">
<rect width="300" height="190" fill="#FEFEFE"/>
<path d="M148.841 178.398C144.349 178.398 140.076 177.568 136.023 175.908C133.826 175.029 131.946 174.028 130.384 172.905C129.163 171.978 127.845 170.708 126.429 169.097C125.013 167.534 123.89 166.094 123.06 164.775C119.935 159.941 118.372 151.348 118.372 138.994C118.372 124.443 120.789 102.544 125.623 73.2959C127.234 63.7744 128.235 55.9863 128.626 49.9316C128.772 47.0996 128.846 44.2432 128.846 41.3623C128.846 38.7744 128.724 36.2109 128.479 33.6719C125.208 37.8711 122.669 41.8018 120.862 45.4639C114.808 57.5732 108.704 78.3984 102.552 107.939C101.282 114.922 100.232 120.244 99.4023 123.906C98.8652 125.957 98.0596 128.325 96.9854 131.011C95.9111 133.696 95.0078 135.576 94.2754 136.65C92.8105 138.506 90.3447 139.434 86.8779 139.434C79.5049 139.434 73.499 137.09 68.8604 132.402C67.4443 131.035 66.3701 129.692 65.6377 128.374C63.3916 124.468 62.2686 117.803 62.2686 108.379L62.4883 95.1953C61.3652 99.4434 60.3643 103.594 59.4854 107.646C58.2158 113.408 57.4834 116.875 57.2881 118.047C54.8955 129.912 53.2354 137.065 52.3076 139.507C51.4287 141.704 50.4766 143.682 49.4512 145.439C48.2305 148.076 45.0322 149.468 39.8564 149.614L37.3662 149.688C36.3408 149.688 35.0225 149.468 33.4111 149.028C27.4541 147.563 23.6455 144.634 21.9854 140.239C21.2041 138.286 20.5449 135.381 20.0078 131.523C18.7871 123.906 18.1768 114.189 18.1768 102.373C18.1768 90.5078 18.7871 76.5674 20.0078 60.5518C20.6426 51.7627 21.1797 46.5381 21.6191 44.8779C22.3516 42.1924 24.6953 40.8496 28.6504 40.8496C30.8965 40.8496 33.5576 41.3135 36.6338 42.2412C41.6631 43.9014 45.3008 46.2451 47.5469 49.2725C47.9863 49.8096 48.3281 50.3467 48.5723 50.8838C48.9141 51.8115 49.085 53.4717 49.085 55.8643L49.0117 61.5771C48.6211 75.5908 48.3525 93.9258 48.2061 116.582C54.2607 88.5547 58.7773 71.8555 61.7559 66.4844C63.0742 64.043 65.3936 62.8223 68.7139 62.8223C72.6201 62.8223 76.1357 63.5791 79.2607 65.0928C85.8037 68.3643 89.6855 73.1982 90.9062 79.5947C91.4922 82.8174 91.8828 86.9922 92.0781 92.1191L92.7373 112.261C94.9346 101.909 97.6445 90.2148 100.867 77.1777C104.432 62.7734 107.312 52.3486 109.51 45.9033C116.15 26.1768 123.23 16.3135 130.75 16.3135L135.291 16.3867C136.219 16.4355 137.513 16.7529 139.173 17.3389C149.476 21.0498 155.311 29.668 156.678 43.1934C156.873 45.4395 156.971 48.7354 156.971 53.0811C156.971 57.4756 156.873 60.9912 156.678 63.6279C156.092 69.6338 154.847 79.0576 152.942 91.8994C149.72 113.091 148.108 129.839 148.108 142.144C148.108 149.565 148.694 155.181 149.866 158.989C150.599 161.187 151.331 162.92 152.063 164.189C153.138 165.41 154.114 166.021 154.993 166.021C159.29 166.021 164.026 149.419 169.202 116.216C169.593 112.896 169.886 110.894 170.081 110.21C170.325 109.185 170.691 108.501 171.18 108.159C171.717 107.817 172.522 107.646 173.597 107.646C174.378 107.744 175.232 108.354 176.16 109.478C176.258 109.868 176.307 110.308 176.307 110.796C176.307 111.577 176.209 112.48 176.014 113.506C171.033 151.592 164.637 172.661 156.824 176.714C154.725 177.837 152.063 178.398 148.841 178.398ZM235.56 177.959C233.411 177.959 231.653 177.837 230.286 177.593C219.104 174.81 213.514 168.364 213.514 158.257V157.598C214.148 149.883 217.762 141.484 224.354 132.402C226.6 129.473 229.92 125.981 234.314 121.929C239.393 117.241 245.276 112.432 251.966 107.5C251.966 103.643 251.6 100.371 250.867 97.6855C250.135 94.9512 249.329 93.1689 248.45 92.3389C248.108 92.0947 247.596 91.9727 246.912 91.9727C245.984 91.9727 244.715 92.1924 243.104 92.6318C241.688 93.0225 240.271 93.2178 238.855 93.2178C235.633 93.2178 232.337 92.2412 228.968 90.2881C227.552 89.5068 226.282 88.5303 225.159 87.3584C223.646 85.8447 222.889 84.4531 222.889 83.1836C222.889 81.8164 223.304 79.8877 224.134 77.3975C225.257 74.0283 227.479 68.6328 230.799 61.2109C233.826 54.5215 235.926 49.6143 237.098 46.4893C237.537 45.415 238.294 42.998 239.368 39.2383C240.101 36.3086 240.467 34.5996 240.467 34.1113C234.07 37.5293 227.601 46.6846 221.058 61.5771C216.517 71.6846 213.025 81.0352 210.584 89.6289C208.338 97.9297 205.53 109.282 202.161 123.687C200.403 131.206 199.524 135.503 199.524 136.577C199.524 137.896 199.671 139.556 199.964 141.558C200.354 144.683 200.55 146.514 200.55 147.051C200.55 151.445 196.766 153.643 189.197 153.643C185.877 153.643 182.654 153.057 179.529 151.885C175.525 150.322 172.864 148.247 171.546 145.659C170.667 143.706 169.544 133.794 168.177 115.923C167.688 109.282 167.444 101.079 167.444 91.3135C167.444 87.0166 167.518 83.2568 167.664 80.0342C168.836 53.0811 171.473 37.7002 175.574 33.8916C177.088 32.2314 179.651 31.4014 183.265 31.4014C186.585 31.4014 189.71 32.085 192.64 33.4521C197.327 35.6982 199.744 38.7256 199.891 42.5342C199.891 45.9521 199.671 49.541 199.231 53.3008C197.571 68.6816 196.741 85.0146 196.741 102.3C196.741 104.399 196.79 105.571 196.888 105.815C197.083 105.815 197.547 104.253 198.279 101.128C200.184 92.9248 202.283 85.4785 204.578 78.7891C213.855 51.9336 223.914 34.7217 234.754 27.1533C236.902 25.4443 238.562 24.4678 239.734 24.2236C240.369 24.0771 241.175 24.0039 242.151 24.0039C244.886 24.0039 247.986 25.2002 251.453 27.5928C257.312 31.5967 260.242 38.2373 260.242 47.5146C260.242 52.6904 259.461 57.793 257.898 62.8223C256.482 67.2168 254.139 72.71 250.867 79.3018C249.451 82.0361 248.743 83.5254 248.743 83.7695C253.284 85.7715 256.702 87.5781 258.997 89.1895C263.147 92.2168 266.736 96.5381 269.764 102.153C273.816 109.771 275.843 117.778 275.843 126.177C275.843 130.962 275.55 134.746 274.964 137.529C272.181 149.346 266.59 159.307 258.191 167.412C252.186 172.979 246.424 176.372 240.906 177.593C239.49 177.837 237.708 177.959 235.56 177.959ZM228.748 170.415C230.213 170.415 232.386 168.975 235.267 166.094C236.976 164.336 238.392 162.603 239.515 160.894C245.228 152.544 249.207 138.262 251.453 118.047L251.526 117.534C251.526 117.192 251.478 117.021 251.38 117.021C251.136 117.021 249.842 118.071 247.498 120.171C234.949 131.597 227.356 143.169 224.72 154.888C224.378 156.646 224.207 158.306 224.207 159.868C224.207 163.823 225.281 167.07 227.43 169.609C227.869 170.146 228.309 170.415 228.748 170.415Z" fill="#00B6A6"/>
<rect x="4" y="87" width="279" height="24" fill="#FEFEFE"/>
<path d="M23.7149 105V93.797H24.8199L27.1659 100.376C27.3133 100.784 27.4606 101.198 27.6079 101.617C27.7553 102.025 27.9026 102.439 28.0499 102.858H28.1179C28.2653 102.439 28.4069 102.025 28.5429 101.617C28.6789 101.198 28.8206 100.784 28.9679 100.376L31.2969 93.797H32.4189V105H31.6539V97.639C31.6539 97.1743 31.6653 96.67 31.6879 96.126C31.7106 95.582 31.7333 95.0777 31.7559 94.613H31.6879L30.8209 97.112L28.4069 103.776H27.7269L25.2959 97.112L24.4119 94.613H24.3439C24.3666 95.0777 24.3893 95.582 24.4119 96.126C24.4346 96.67 24.4459 97.1743 24.4459 97.639V105H23.7149ZM44.0648 98.404L43.3508 100.495H47.3288L46.6148 98.404C46.3882 97.7353 46.1728 97.095 45.9688 96.483C45.7648 95.871 45.5665 95.2193 45.3738 94.528H45.3058C45.1132 95.2193 44.9148 95.871 44.7108 96.483C44.5068 97.095 44.2915 97.7353 44.0648 98.404ZM41.0048 105L44.9488 93.797H45.7308L49.6748 105H48.8588L47.5498 101.158H43.1128L41.7868 105H41.0048ZM59.933 105V94.477H56.363V93.797H64.285V94.477H60.715V105H59.933ZM73.2341 105V93.797H74.0161V98.71H80.0171V93.797H80.7991V105H80.0171V99.39H74.0161V105H73.2341ZM90.8915 105V93.797H91.6735V105H90.8915ZM101.775 105V93.797H102.557V104.32H107.725V105H101.775ZM116.511 105V93.797H119.112C120.268 93.797 121.22 94.0293 121.968 94.494C122.716 94.9473 123.271 95.5877 123.634 96.415C124.008 97.2423 124.195 98.2227 124.195 99.356C124.195 100.489 124.008 101.481 123.634 102.331C123.271 103.17 122.716 103.827 121.968 104.303C121.22 104.768 120.274 105 119.129 105H116.511ZM117.293 104.337H119.027C120.047 104.337 120.874 104.127 121.509 103.708C122.155 103.277 122.625 102.688 122.92 101.94C123.226 101.192 123.379 100.331 123.379 99.356C123.379 98.3813 123.226 97.5313 122.92 96.806C122.625 96.0693 122.155 95.497 121.509 95.089C120.874 94.6697 120.047 94.46 119.027 94.46H117.293V104.337ZM133.571 105V93.797H139.708V94.477H134.353V98.71H138.841V99.39H134.353V104.32H139.878V105H133.571ZM159.323 105V93.797H162.349C163.482 93.797 164.383 94.018 165.052 94.46C165.721 94.8907 166.055 95.5763 166.055 96.517C166.055 97.1063 165.908 97.622 165.613 98.064C165.318 98.4947 164.888 98.795 164.321 98.965V99.033C165.046 99.1463 165.63 99.4353 166.072 99.9C166.514 100.353 166.735 100.965 166.735 101.736C166.735 102.813 166.355 103.629 165.596 104.184C164.848 104.728 163.839 105 162.57 105H159.323ZM160.105 98.727H162.043C163.188 98.727 164.009 98.54 164.508 98.166C165.018 97.7807 165.273 97.2593 165.273 96.602C165.273 95.8087 165.007 95.2533 164.474 94.936C163.941 94.6073 163.159 94.443 162.128 94.443H160.105V98.727ZM160.105 104.354H162.366C163.477 104.354 164.355 104.144 165.001 103.725C165.647 103.306 165.97 102.648 165.97 101.753C165.97 100.948 165.653 100.353 165.018 99.968C164.395 99.5713 163.511 99.373 162.366 99.373H160.105V104.354ZM177.498 98.404L176.784 100.495H180.762L180.048 98.404C179.822 97.7353 179.606 97.095 179.402 96.483C179.198 95.871 179 95.2193 178.807 94.528H178.739C178.547 95.2193 178.348 95.871 178.144 96.483C177.94 97.095 177.725 97.7353 177.498 98.404ZM174.438 105L178.382 93.797H179.164L183.108 105H182.292L180.983 101.158H176.546L175.22 105H174.438ZM191.699 105V93.797H194.912C196.023 93.797 196.913 94.0237 197.581 94.477C198.25 94.919 198.584 95.6783 198.584 96.755C198.584 97.6503 198.324 98.353 197.802 98.863C197.292 99.373 196.595 99.6847 195.711 99.798L198.805 105H197.904L194.861 99.849H192.481V105H191.699ZM192.481 99.203H194.708C195.694 99.203 196.454 99.0047 196.986 98.608C197.519 98.2 197.785 97.5823 197.785 96.755C197.785 95.9163 197.519 95.327 196.986 94.987C196.454 94.6357 195.694 94.46 194.708 94.46H192.481V99.203ZM207.747 105V93.797H210.96C212.07 93.797 212.96 94.0237 213.629 94.477C214.297 94.919 214.632 95.6783 214.632 96.755C214.632 97.6503 214.371 98.353 213.85 98.863C213.34 99.373 212.643 99.6847 211.759 99.798L214.853 105H213.952L210.909 99.849H208.529V105H207.747ZM208.529 99.203H210.756C211.742 99.203 212.501 99.0047 213.034 98.608C213.566 98.2 213.833 97.5823 213.833 96.755C213.833 95.9163 213.566 95.327 213.034 94.987C212.501 94.6357 211.742 94.46 210.756 94.46H208.529V99.203ZM223.794 105V93.797H229.931V94.477H224.576V98.71H229.064V99.39H224.576V104.32H230.101V105H223.794ZM240.89 98.404L240.176 100.495H244.154L243.44 98.404C243.213 97.7353 242.998 97.095 242.794 96.483C242.59 95.871 242.391 95.2193 242.199 94.528H242.131C241.938 95.2193 241.74 95.871 241.536 96.483C241.332 97.095 241.116 97.7353 240.89 98.404ZM237.83 105L241.774 93.797H242.556L246.5 105H245.684L244.375 101.158H239.938L238.612 105H237.83ZM258.532 105.204C258.056 105.204 257.591 105.136 257.138 105C256.696 104.853 256.293 104.609 255.931 104.269C255.579 103.929 255.296 103.47 255.081 102.892C254.877 102.303 254.775 101.572 254.775 100.699V93.797H255.557V100.614C255.557 101.6 255.693 102.376 255.965 102.943C256.248 103.51 256.616 103.912 257.07 104.15C257.523 104.377 258.01 104.49 258.532 104.49C259.076 104.49 259.58 104.377 260.045 104.15C260.509 103.912 260.883 103.51 261.167 102.943C261.45 102.376 261.592 101.6 261.592 100.614V93.797H262.323V100.699C262.323 101.572 262.215 102.303 262 102.892C261.796 103.47 261.512 103.929 261.15 104.269C260.798 104.609 260.396 104.853 259.943 105C259.489 105.136 259.019 105.204 258.532 105.204Z" fill="#101010"/>
<path d="M23.7149 105V93.797H24.8199L27.1659 100.376C27.3133 100.784 27.4606 101.198 27.6079 101.617C27.7553 102.025 27.9026 102.439 28.0499 102.858H28.1179C28.2653 102.439 28.4069 102.025 28.5429 101.617C28.6789 101.198 28.8206 100.784 28.9679 100.376L31.2969 93.797H32.4189V105H31.6539V97.639C31.6539 97.1743 31.6653 96.67 31.6879 96.126C31.7106 95.582 31.7333 95.0777 31.7559 94.613H31.6879L30.8209 97.112L28.4069 103.776H27.7269L25.2959 97.112L24.4119 94.613H24.3439C24.3666 95.0777 24.3893 95.582 24.4119 96.126C24.4346 96.67 24.4459 97.1743 24.4459 97.639V105H23.7149ZM44.0648 98.404L43.3508 100.495H47.3288L46.6148 98.404C46.3882 97.7353 46.1728 97.095 45.9688 96.483C45.7648 95.871 45.5665 95.2193 45.3738 94.528H45.3058C45.1132 95.2193 44.9148 95.871 44.7108 96.483C44.5068 97.095 44.2915 97.7353 44.0648 98.404ZM41.0048 105L44.9488 93.797H45.7308L49.6748 105H48.8588L47.5498 101.158H43.1128L41.7868 105H41.0048ZM59.933 105V94.477H56.363V93.797H64.285V94.477H60.715V105H59.933ZM73.2341 105V93.797H74.0161V98.71H80.0171V93.797H80.7991V105H80.0171V99.39H74.0161V105H73.2341ZM90.8915 105V93.797H91.6735V105H90.8915ZM101.775 105V93.797H102.557V104.32H107.725V105H101.775ZM116.511 105V93.797H119.112C120.268 93.797 121.22 94.0293 121.968 94.494C122.716 94.9473 123.271 95.5877 123.634 96.415C124.008 97.2423 124.195 98.2227 124.195 99.356C124.195 100.489 124.008 101.481 123.634 102.331C123.271 103.17 122.716 103.827 121.968 104.303C121.22 104.768 120.274 105 119.129 105H116.511ZM117.293 104.337H119.027C120.047 104.337 120.874 104.127 121.509 103.708C122.155 103.277 122.625 102.688 122.92 101.94C123.226 101.192 123.379 100.331 123.379 99.356C123.379 98.3813 123.226 97.5313 122.92 96.806C122.625 96.0693 122.155 95.497 121.509 95.089C120.874 94.6697 120.047 94.46 119.027 94.46H117.293V104.337ZM133.571 105V93.797H139.708V94.477H134.353V98.71H138.841V99.39H134.353V104.32H139.878V105H133.571ZM159.323 105V93.797H162.349C163.482 93.797 164.383 94.018 165.052 94.46C165.721 94.8907 166.055 95.5763 166.055 96.517C166.055 97.1063 165.908 97.622 165.613 98.064C165.318 98.4947 164.888 98.795 164.321 98.965V99.033C165.046 99.1463 165.63 99.4353 166.072 99.9C166.514 100.353 166.735 100.965 166.735 101.736C166.735 102.813 166.355 103.629 165.596 104.184C164.848 104.728 163.839 105 162.57 105H159.323ZM160.105 98.727H162.043C163.188 98.727 164.009 98.54 164.508 98.166C165.018 97.7807 165.273 97.2593 165.273 96.602C165.273 95.8087 165.007 95.2533 164.474 94.936C163.941 94.6073 163.159 94.443 162.128 94.443H160.105V98.727ZM160.105 104.354H162.366C163.477 104.354 164.355 104.144 165.001 103.725C165.647 103.306 165.97 102.648 165.97 101.753C165.97 100.948 165.653 100.353 165.018 99.968C164.395 99.5713 163.511 99.373 162.366 99.373H160.105V104.354ZM177.498 98.404L176.784 100.495H180.762L180.048 98.404C179.822 97.7353 179.606 97.095 179.402 96.483C179.198 95.871 179 95.2193 178.807 94.528H178.739C178.547 95.2193 178.348 95.871 178.144 96.483C177.94 97.095 177.725 97.7353 177.498 98.404ZM174.438 105L178.382 93.797H179.164L183.108 105H182.292L180.983 101.158H176.546L175.22 105H174.438ZM191.699 105V93.797H194.912C196.023 93.797 196.913 94.0237 197.581 94.477C198.25 94.919 198.584 95.6783 198.584 96.755C198.584 97.6503 198.324 98.353 197.802 98.863C197.292 99.373 196.595 99.6847 195.711 99.798L198.805 105H197.904L194.861 99.849H192.481V105H191.699ZM192.481 99.203H194.708C195.694 99.203 196.454 99.0047 196.986 98.608C197.519 98.2 197.785 97.5823 197.785 96.755C197.785 95.9163 197.519 95.327 196.986 94.987C196.454 94.6357 195.694 94.46 194.708 94.46H192.481V99.203ZM207.747 105V93.797H210.96C212.07 93.797 212.96 94.0237 213.629 94.477C214.297 94.919 214.632 95.6783 214.632 96.755C214.632 97.6503 214.371 98.353 213.85 98.863C213.34 99.373 212.643 99.6847 211.759 99.798L214.853 105H213.952L210.909 99.849H208.529V105H207.747ZM208.529 99.203H210.756C211.742 99.203 212.501 99.0047 213.034 98.608C213.566 98.2 213.833 97.5823 213.833 96.755C213.833 95.9163 213.566 95.327 213.034 94.987C212.501 94.6357 211.742 94.46 210.756 94.46H208.529V99.203ZM223.794 105V93.797H229.931V94.477H224.576V98.71H229.064V99.39H224.576V104.32H230.101V105H223.794ZM240.89 98.404L240.176 100.495H244.154L243.44 98.404C243.213 97.7353 242.998 97.095 242.794 96.483C242.59 95.871 242.391 95.2193 242.199 94.528H242.131C241.938 95.2193 241.74 95.871 241.536 96.483C241.332 97.095 241.116 97.7353 240.89 98.404ZM237.83 105L241.774 93.797H242.556L246.5 105H245.684L244.375 101.158H239.938L238.612 105H237.83ZM258.532 105.204C258.056 105.204 257.591 105.136 257.138 105C256.696 104.853 256.293 104.609 255.931 104.269C255.579 103.929 255.296 103.47 255.081 102.892C254.877 102.303 254.775 101.572 254.775 100.699V93.797H255.557V100.614C255.557 101.6 255.693 102.376 255.965 102.943C256.248 103.51 256.616 103.912 257.07 104.15C257.523 104.377 258.01 104.49 258.532 104.49C259.076 104.49 259.58 104.377 260.045 104.15C260.509 103.912 260.883 103.51 261.167 102.943C261.45 102.376 261.592 101.6 261.592 100.614V93.797H262.323V100.699C262.323 101.572 262.215 102.303 262 102.892C261.796 103.47 261.512 103.929 261.15 104.269C260.798 104.609 260.396 104.853 259.943 105C259.489 105.136 259.019 105.204 258.532 105.204Z" fill="black" fill-opacity="0.2"/>
</g>
<defs>
<clipPath id="clip0_297_5">
<rect width="300" height="190" fill="white"/>
</clipPath>
</defs>
</svg>
